<svg xmlns="http://www.w3.org/2000/svg" xmlns:xlink="http://www.w3.org/1999/xlink" version="1.1" width="233" height="60" viewBox="0 0 233 60">
<defs>
<clipPath id="clip_0">
<path transform="matrix(1,0,0,-1,0,60)" d="M0 60H233V0H0Z"/>
</clipPath>
</defs>
<g id="layer_1" data-name="Layer 1">
<path transform="matrix(1,0,0,-1,0,60)" d="M49.027 8.677H45.568V22.878H49.027Z" fill="#ffffff"/>
<path transform="matrix(1,0,0,-1,64.2393,51.3232)" d="M0 0H-3.459L-9.245 8.761V0H-12.704V14.201H-9.245L-3.459 5.401V14.201H0Z" fill="#ffffff"/>
<g clip-path="url(#clip_0)">
<path transform="matrix(1,0,0,-1,69.0947,50.958)" d="M0 0C-.823 .336-1.48 .836-1.972 1.497-2.465 2.157-2.725 2.953-2.751 3.885H.931C.984 3.358 1.166 2.956 1.477 2.68 1.787 2.403 2.191 2.265 2.69 2.265 3.203 2.265 3.607 2.384 3.904 2.618 4.201 2.855 4.35 3.183 4.35 3.601 4.35 3.951 4.231 4.242 3.995 4.471 3.759 4.699 3.469 4.889 3.125 5.036 2.781 5.185 2.292 5.354 1.659 5.543 .741 5.826-.007 6.108-.586 6.393-1.167 6.676-1.666 7.094-2.084 7.647-2.502 8.2-2.711 8.921-2.711 9.813-2.711 11.133-2.232 12.168-1.274 12.916-.317 13.665 .931 14.039 2.468 14.039 4.033 14.039 5.293 13.665 6.251 12.916 7.208 12.168 7.721 11.127 7.788 9.791H4.046C4.019 10.249 3.85 10.61 3.54 10.873 3.229 11.136 2.832 11.268 2.346 11.268 1.928 11.268 1.591 11.156 1.335 10.934 1.079 10.712 .951 10.391 .951 9.973 .951 9.514 1.166 9.156 1.598 8.901 2.03 8.645 2.704 8.368 3.621 8.071 4.538 7.761 5.283 7.464 5.856 7.182 6.43 6.898 6.925 6.486 7.343 5.946 7.761 5.407 7.97 4.714 7.97 3.863 7.97 3.054 7.765 2.319 7.354 1.658 6.942 .998 6.345 .472 5.563 .081 4.781-.311 3.857-.507 2.792-.507 1.753-.507 .822-.338 0 0" fill="#ffffff"/>
<path transform="matrix(1,0,0,-1,89.4053,37.1221)" d="M0 0V-2.771H-3.763V-14.201H-7.222V-2.771H-10.985V0Z" fill="#ffffff"/>
<path transform="matrix(1,0,0,-1,99.0947,46.1436)" d="M0 0-1.76 5.199-3.5 0ZM.89-2.671H-4.41L-5.26-5.18H-8.881L-3.743 9.021H.263L5.402-5.18H1.74Z" fill="#ffffff"/>
<path transform="matrix(1,0,0,-1,109.5132,48.652299)" d="M0 0H4.531V-2.671H-3.459V11.53H0Z" fill="#ffffff"/>
<path transform="matrix(1,0,0,-1,123.6533,46.1436)" d="M0 0-1.76 5.199-3.5 0ZM.89-2.671H-4.409L-5.26-5.18H-8.88L-3.743 9.021H.264L5.401-5.18H1.74Z" fill="#ffffff"/>
<path transform="matrix(1,0,0,-1,134.0723,43.513704)" d="M0 0H2.145C2.777 0 3.253 .154 3.569 .465 3.887 .775 4.045 1.213 4.045 1.78 4.045 2.318 3.887 2.744 3.569 3.055 3.253 3.364 2.777 3.52 2.145 3.52H0ZM3.782-7.81 .829-2.448H0V-7.81H-3.46V6.392H2.347C3.466 6.392 4.42 6.196 5.208 5.806 5.997 5.415 6.588 4.878 6.979 4.197 7.369 3.517 7.564 2.758 7.564 1.922 7.564 .979 7.299 .135 6.767-.607 6.233-1.349 5.447-1.874 4.409-2.186L7.687-7.81Z" fill="#ffffff"/>
<path transform="matrix(1,0,0,-1,152.0762,39.8926)" d="M0 0V-2.873H4.632V-5.543H0V-8.659H5.239V-11.431H-3.459V2.771H5.239V0Z" fill="white"/>
<path transform="matrix(1,0,0,-1,172.2656,51.3232)" d="M0 0H-3.46L-9.245 8.761V0H-12.706V14.201H-9.245L-3.46 5.401V14.201H0Z" fill="white"/>
<path transform="matrix(1,0,0,-1,178.2324,39.8926)" d="M0 0V-2.873H4.633V-5.543H0V-8.659H5.239V-11.431H-3.46V2.771H5.239V0Z" fill="white"/>
<path transform="matrix(1,0,0,-1,189.1777,43.513704)" d="M0 0H2.144C2.776 0 3.253 .154 3.57 .465 3.886 .775 4.046 1.213 4.046 1.78 4.046 2.318 3.886 2.744 3.57 3.055 3.253 3.364 2.776 3.52 2.144 3.52H0ZM3.782-7.81 .83-2.448H0V-7.81H-3.461V6.392H2.347C3.465 6.392 4.42 6.196 5.209 5.806 5.997 5.415 6.587 4.878 6.979 4.197 7.368 3.517 7.563 2.758 7.563 1.922 7.563 .979 7.299 .135 6.766-.607 6.232-1.349 5.448-1.874 4.408-2.186L7.687-7.81Z" fill="white"/>
<path transform="matrix(1,0,0,-1,208.334,41.6123)" d="M0 0C-.256 .472-.623 .832-1.102 1.083-1.581 1.332-2.143 1.457-2.791 1.457-3.91 1.457-4.808 1.089-5.481 .354-6.156-.381-6.492-1.362-6.492-2.589-6.492-3.897-6.139-4.919-5.432-5.654-4.723-6.39-3.75-6.756-2.508-6.756-1.658-6.756-.939-6.541-.354-6.109 .234-5.678 .661-5.058 .933-4.247H-3.459V-1.698H4.065V-4.916C3.812-5.778 3.375-6.582 2.761-7.322 2.149-8.064 1.37-8.666 .426-9.123-.518-9.582-1.585-9.811-2.771-9.811-4.174-9.811-5.425-9.505-6.523-8.891-7.623-8.277-8.479-7.425-9.094-6.331-9.707-5.239-10.012-3.992-10.012-2.589-10.012-1.187-9.707 .063-9.094 1.163-8.479 2.263-7.627 3.118-6.534 3.731-5.44 4.346-4.194 4.653-2.791 4.653-1.091 4.653 .341 4.241 1.508 3.419 2.676 2.597 3.446 1.457 3.824 0Z" fill="white"/>
<path transform="matrix(1,0,0,-1,226.5,37.1221)" d="M0 0-4.915-9.507V-14.201H-8.373V-9.507L-13.29 0H-9.366L-6.615-5.947-3.884 0Z" fill="white"/>
<path transform="matrix(1,0,0,-1,66.8335,29.7925)" d="M0 0H-18.376L-33.379 15.34H-15.678Z" fill="#ffffff"/>
<path transform="matrix(1,0,0,-1,107.4565,29.1445)" d="M0 0H-31.415L-57.065 24.613H-26.804Z" fill="#ffffff"/>
<path transform="matrix(1,0,0,-1,20.5103,29.7451)" d="M0 0 14.254 13.986" fill="#ffffff"/>
<path transform="matrix(1,0,0,-1,20.5103,29.7451)" stroke-width="3.676" stroke-linecap="butt" stroke-miterlimit="10" stroke-linejoin="miter" fill="none" stroke="#ffffff" d="M0 0 14.254 13.986"/>
<path transform="matrix(1,0,0,-1,40.3174,17.6782)" d="M0 0 11.411 11.873" fill="#ffffff"/>
<path transform="matrix(1,0,0,-1,40.3174,17.6782)" stroke-width="3.676" stroke-linecap="butt" stroke-miterlimit="10" stroke-linejoin="miter" fill="none" stroke="#ffffff" d="M0 0 11.411 11.873"/>
<path transform="matrix(1,0,0,-1,26.6982,54.5605)" d="M0 0C-1.505-.041-2.937 .312-4.319 .856-7.185 1.982-9.097 4.074-10.335 6.854-11.151 8.689-11.472 10.644-11.83 12.594-12.333 15.342-12.946 18.064-14.341 20.527-14.703 21.166-15.211 21.722-15.682 22.356-15.541 22.37-15.406 22.398-15.274 22.391-10.963 22.157-6.757 21.441-2.816 19.58-.686 18.574 1.182 17.229 2.521 15.241 2.579 15.154 2.626 15.06 2.695 14.941-.131 12.277-2.222 9.271-1.835 5.057-1.958 5.175-2.03 5.244-2.101 5.313-2.346 5.664-2.591 6.015-2.836 6.365-2.868 6.416-2.899 6.464-2.931 6.514-2.958 6.579-2.976 6.65-3.014 6.709-4.535 9.059-5.631 11.581-6.127 14.351-6.172 14.603-6.276 14.846-6.352 15.092-6.744 11.25-5.545 7.852-3.518 4.685-2.441 3.261-1.365 1.837-.29 .411-.188 .276-.099 .133-.004-.009Z" fill="#006838" fill-rule="evenodd"/>
<path transform="matrix(1,0,0,-1,35.0503,52.1172)" d="M0 0C-.096-.06-.192-.118-.289-.181-.468-.252-.654-.313-.828-.399-2.354-1.154-3.978-1.582-5.646-1.873-5.955-1.926-6.122-1.858-6.161-1.542H-6.162C-6.128-1.481-6.079-1.425-6.063-1.359-5.773-.209-5.515 .951-5.193 2.093-4.973 2.872-4.667 3.629-4.4 4.396-4.376 4.44-4.353 4.485-4.329 4.529-4.161 4.87-3.993 5.211-3.826 5.552L-3.861 5.574-3.825 5.552C-3.542 5.981-3.277 6.422-2.97 6.829-2.342 7.664-1.691 8.48-1.049 9.305-2.079 8.918-2.898 8.265-3.528 7.367-3.58 7.309-3.633 7.249-3.685 7.19-4.181 6.481-4.677 5.771-5.172 5.062-5.277 4.924-5.401 4.794-5.484 4.646-6.396 2.99-7.006 1.223-7.448-.606-7.498-.815-7.58-1.014-7.686-1.331-8.536-.019-9.003 1.29-9.187 2.676-9.566 5.535-8.481 7.93-6.648 10.028-5.626 11.197-4.504 12.277-3.467 13.434-2.319 14.714-1.281 16.078-.69 17.723-.581 18.029-.515 18.353-.397 18.78-.222 18.537-.104 18.408-.022 18.259 .623 17.068 1.321 15.9 1.888 14.672 2.979 12.309 3.806 9.862 3.823 7.214 3.836 5.267 3.426 3.434 2.118 1.933 1.493 1.217 .711 .641 0 0" fill="#9ad117" fill-rule="evenodd"/>
</g>
</g>
</svg>
